<svg width="257" height="256" viewBox="0 0 257 256" fill="none" xmlns="http://www.w3.org/2000/svg">
<rect width="256" height="256" transform="translate(0.434448)" fill="white"/>
<path d="M51.4417 51.0132H205.417V204.988H51.4417V51.0132Z" fill="white"/>
<path fill-rule="evenodd" clip-rule="evenodd" d="M196.22 60.2102H60.6388V195.791H196.22V60.2102ZM51.4417 51.0132V204.988H205.417V51.0132H51.4417Z" fill="black"/>
<mask id="mask0" mask-type="alpha" maskUnits="userSpaceOnUse" x="56" y="56" width="145" height="145">
<rect x="56.0708" y="56.0009" width="144.76" height="144.76" fill="#C4C4C4"/>
</mask>
<g mask="url(#mask0)">
<path fill-rule="evenodd" clip-rule="evenodd" d="M128.19 51.9376C128.777 51.8717 129.361 52.0762 129.778 52.4933L159.625 82.3402H202.543C203.249 82.3402 203.899 82.7238 204.24 83.3417C204.582 83.9595 204.56 84.7141 204.184 85.3115L188.126 110.841L203.914 126.629C204.469 127.184 204.635 128.018 204.334 128.742C204.034 129.467 203.327 129.939 202.543 129.939H176.112L165.126 147.404L203.528 170.052C204.281 170.496 204.644 171.389 204.414 172.232C204.183 173.076 203.417 173.661 202.543 173.661H148.61L130.048 203.169C129.734 203.668 129.21 203.997 128.624 204.063C128.037 204.129 127.453 203.925 127.036 203.507L97.1892 173.661H54.271C53.5652 173.661 52.9151 173.277 52.5738 172.659C52.2325 172.041 52.2539 171.287 52.6298 170.689L68.6885 145.16L52.9 129.371C52.3455 128.817 52.1796 127.983 52.4797 127.258C52.7798 126.534 53.4868 126.061 54.271 126.061H80.7021L91.6881 108.597L53.2861 85.9493C52.533 85.5052 52.1703 84.6121 52.4005 83.7687C52.6307 82.9253 53.3968 82.3402 54.271 82.3402H108.204L126.766 52.832C127.08 52.3327 127.604 52.0035 128.19 51.9376ZM105.765 86.2181H61.3757L93.7537 105.313L105.765 86.2181ZM97.0954 107.284L110.346 86.2181H158.019L183.196 111.395L173.97 126.061H128.936L97.0954 107.284ZM95.0297 110.567L85.2834 126.061H121.302L95.0297 110.567ZM127.878 129.939H82.8441L73.6185 144.606L98.7954 169.783H146.468L159.719 148.717L127.878 129.939ZM161.784 145.433L171.531 129.939H135.512L161.784 145.433ZM163.06 150.688L151.049 169.783H195.438L163.06 150.688ZM144.029 173.661H102.673L128.06 199.047L144.029 173.661ZM93.3113 169.783L71.5008 147.972L57.7813 169.783H93.3113ZM70.8062 141.793L78.2628 129.939H58.9521L70.8062 141.793ZM178.551 126.061H197.862L186.008 114.207L178.551 126.061ZM185.313 108.029L199.033 86.2181H163.503L185.313 108.029ZM154.141 82.3402H112.786L128.754 56.9538L154.141 82.3402Z" fill="black"/>
<path fill-rule="evenodd" clip-rule="evenodd" d="M82.7467 46.7601L128.407 124.184L174.067 46.7601V209.242L128.407 131.818L82.7467 209.242V46.7601ZM126.156 128.001L86.6246 60.9695V195.032L126.156 128.001ZM130.658 128.001L170.189 195.032V60.9695L130.658 128.001Z" fill="black"/>
</g>
<path fill-rule="evenodd" clip-rule="evenodd" d="M196.22 60.2102H60.6388V195.791H196.22V60.2102ZM51.4417 51.0132V204.988H205.417V51.0132H51.4417Z" fill="black"/>
<path fill-rule="evenodd" clip-rule="evenodd" d="M63.6418 171.536C63.6418 167.337 60.2376 163.933 56.0381 163.933C51.8387 163.933 48.4344 167.337 48.4344 171.536C48.4344 175.736 51.8387 179.14 56.0381 179.14C60.2376 179.14 63.6418 175.736 63.6418 171.536Z" fill="black"/>
<path fill-rule="evenodd" clip-rule="evenodd" d="M63.6418 127.815C63.6418 123.616 60.2376 120.211 56.0381 120.211C51.8387 120.211 48.4344 123.616 48.4344 127.815C48.4344 132.015 51.8387 135.419 56.0381 135.419C60.2376 135.419 63.6418 132.015 63.6418 127.815Z" fill="black"/>
<path fill-rule="evenodd" clip-rule="evenodd" d="M63.6418 84.0938C63.6418 79.8944 60.2376 76.4901 56.0381 76.4901C51.8387 76.4901 48.4344 79.8944 48.4344 84.0938C48.4344 88.2932 51.8387 91.6975 56.0381 91.6975C60.2376 91.6975 63.6418 88.2932 63.6418 84.0938Z" fill="black"/>
<path fill-rule="evenodd" clip-rule="evenodd" d="M208.434 171.536C208.434 167.337 205.03 163.933 200.831 163.933C196.631 163.933 193.227 167.337 193.227 171.536C193.227 175.736 196.631 179.14 200.831 179.14C205.03 179.14 208.434 175.736 208.434 171.536Z" fill="black"/>
<path fill-rule="evenodd" clip-rule="evenodd" d="M208.434 127.815C208.434 123.616 205.03 120.211 200.831 120.211C196.631 120.211 193.227 123.616 193.227 127.815C193.227 132.015 196.631 135.419 200.831 135.419C205.03 135.419 208.434 132.015 208.434 127.815Z" fill="black"/>
<path fill-rule="evenodd" clip-rule="evenodd" d="M208.434 84.0938C208.434 79.8944 205.03 76.4901 200.831 76.4901C196.631 76.4901 193.227 79.8944 193.227 84.0938C193.227 88.2932 196.631 91.6975 200.831 91.6975C205.03 91.6975 208.434 88.2932 208.434 84.0938Z" fill="black"/>
<path fill-rule="evenodd" clip-rule="evenodd" d="M172.128 192.808C167.929 192.808 164.524 196.212 164.524 200.411C164.524 204.611 167.929 208.015 172.128 208.015C176.328 208.015 179.732 204.611 179.732 200.411C179.732 196.212 176.328 192.808 172.128 192.808Z" fill="black"/>
<path fill-rule="evenodd" clip-rule="evenodd" d="M128.407 192.808C124.208 192.808 120.803 196.212 120.803 200.412C120.803 204.611 124.208 208.015 128.407 208.015C132.606 208.015 136.011 204.611 136.011 200.412C136.011 196.212 132.606 192.808 128.407 192.808Z" fill="black"/>
<path fill-rule="evenodd" clip-rule="evenodd" d="M84.6858 192.808C80.4864 192.808 77.0822 196.212 77.0822 200.411C77.0822 204.611 80.4864 208.015 84.6859 208.015C88.8853 208.015 92.2895 204.611 92.2895 200.411C92.2895 196.212 88.8853 192.808 84.6858 192.808Z" fill="black"/>
<path fill-rule="evenodd" clip-rule="evenodd" d="M172.128 47.985C167.928 47.985 164.524 51.3893 164.524 55.5887C164.524 59.7881 167.928 63.1924 172.128 63.1924C176.327 63.1924 179.732 59.7881 179.732 55.5887C179.732 51.3893 176.327 47.985 172.128 47.985Z" fill="black"/>
<path fill-rule="evenodd" clip-rule="evenodd" d="M128.407 47.985C124.207 47.985 120.803 51.3893 120.803 55.5887C120.803 59.7881 124.207 63.1924 128.407 63.1924C132.606 63.1924 136.01 59.7881 136.01 55.5887C136.01 51.3893 132.606 47.985 128.407 47.985Z" fill="black"/>
<path fill-rule="evenodd" clip-rule="evenodd" d="M84.6855 47.985C80.4861 47.985 77.0818 51.3893 77.0818 55.5887C77.0818 59.7881 80.4861 63.1924 84.6855 63.1924C88.8849 63.1924 92.2892 59.7881 92.2892 55.5887C92.2892 51.3893 88.8849 47.985 84.6855 47.985Z" fill="black"/>
</svg>
