<?xml version="1.0" standalone="no"?>
<!DOCTYPE svg PUBLIC "-//W3C//DTD SVG 20010904//EN"
 "http://www.w3.org/TR/2001/REC-SVG-20010904/DTD/svg10.dtd">
<svg version="1.0" xmlns="http://www.w3.org/2000/svg"
 width="1108.000000pt" height="1108.000000pt" viewBox="0 0 1108.000000 1108.000000"
 preserveAspectRatio="xMidYMid meet">
<metadata>
Created by potrace 1.11, written by Peter Selinger 2001-2013
</metadata>
<g transform="translate(0.000000,1108.000000) scale(0.100000,-0.100000)"
fill="#000000" stroke="none">
<path d="M7350 10733 c-58 -7 -130 -18 -160 -26 -48 -11 -55 -15 -55 -37 0
-24 3 -25 50 -23 131 6 345 4 355 -2 7 -4 26 -8 43 -10 68 -5 192 -47 277 -94
74 -41 176 -150 212 -228 18 -37 34 -77 36 -88 6 -36 7 -40 13 -50 7 -12 3
-202 -4 -230 -23 -81 -58 -165 -69 -165 -5 0 -8 -5 -8 -11 0 -19 -72 -103
-126 -147 -70 -57 -161 -101 -264 -128 -74 -20 -105 -22 -245 -19 -88 1 -171
5 -185 8 -14 3 -47 8 -75 11 -73 9 -103 14 -165 26 -30 6 -65 13 -77 16 -75
14 -108 21 -108 24 0 1 -7 3 -15 5 -67 15 -101 23 -190 49 -30 9 -59 18 -65
19 -5 2 -37 11 -70 21 -33 9 -67 20 -75 23 -8 3 -17 7 -20 8 -3 0 -36 11 -75
24 -38 13 -74 24 -80 26 -5 1 -17 5 -25 8 -26 10 -179 63 -315 110 -71 25
-142 50 -157 56 -16 6 -28 8 -28 5 0 -4 -6 -2 -12 3 -11 8 -87 37 -133 50 -5
1 -71 23 -145 49 -74 25 -148 50 -165 54 -16 5 -61 18 -100 30 -114 35 -263
77 -300 85 -11 2 -29 6 -40 9 -30 8 -97 24 -125 30 -14 3 -56 12 -95 20 -75
16 -122 25 -170 32 -16 2 -41 6 -55 9 -57 12 -164 26 -240 30 -30 2 -55 5 -55
5 0 1 -29 4 -65 6 -123 6 -435 2 -435 -5 0 -2 -20 -4 -44 -6 -25 -3 -61 -7
-80 -10 -20 -4 -45 -8 -56 -10 -41 -6 -90 -16 -107 -21 -9 -3 -25 -7 -36 -9
-10 -2 -52 -14 -93 -26 -41 -13 -76 -23 -79 -24 -3 -1 -18 -7 -33 -13 -16 -7
-34 -12 -41 -12 -6 0 -16 -4 -21 -9 -6 -4 -34 -16 -62 -27 -29 -10 -53 -22
-53 -26 0 -4 -3 -7 -7 -6 -19 6 -314 -166 -369 -215 -7 -7 -19 -16 -26 -22
-91 -70 -239 -212 -290 -279 -17 -23 -37 -45 -43 -51 -6 -5 -44 -59 -84 -120
-92 -137 -183 -327 -218 -450 -1 -5 -10 -35 -18 -65 -41 -143 -50 -215 -49
-420 0 -161 8 -284 20 -319 2 -7 11 -48 20 -90 9 -42 19 -80 22 -86 4 -5 7
-12 8 -15 5 -27 19 -70 30 -90 7 -14 23 -47 35 -75 52 -113 172 -268 280 -360
56 -48 117 -95 124 -95 4 0 21 -10 38 -23 53 -37 68 -45 182 -101 105 -52 284
-126 304 -126 5 0 11 10 14 22 6 22 -1 30 -53 66 -24 16 -47 40 -104 107 -101
118 -157 386 -118 565 8 36 15 72 16 80 3 22 61 134 94 183 55 78 160 178 232
218 15 8 40 23 54 33 22 14 175 75 191 76 3 0 6 0 8 1 12 4 49 11 82 17 82 14
403 6 505 -12 14 -3 43 -7 65 -10 22 -3 74 -11 115 -20 41 -8 89 -17 105 -20
26 -4 67 -13 100 -20 6 -1 37 -9 70 -16 74 -17 74 -17 78 -20 1 -1 11 -3 22
-5 24 -4 47 -9 105 -25 25 -7 50 -13 55 -14 31 -7 187 -51 258 -73 26 -8 53
-16 60 -17 7 -1 28 -7 47 -13 19 -7 82 -26 140 -43 58 -17 114 -36 125 -40 11
-5 67 -23 125 -40 58 -18 125 -38 150 -47 25 -8 117 -37 205 -65 88 -27 203
-63 255 -80 192 -61 550 -167 590 -174 14 -3 43 -11 65 -19 36 -12 68 -19 130
-30 11 -2 21 -4 23 -5 1 -2 7 -4 12 -5 6 -1 11 -3 13 -5 1 -1 11 -3 22 -5 11
-1 40 -8 65 -14 68 -17 75 -19 114 -25 19 -3 55 -10 78 -15 24 -5 61 -12 82
-15 21 -4 48 -8 60 -11 92 -20 285 -36 443 -39 93 -1 113 -4 114 -16 0 -8 2
-305 3 -660 2 -667 1 -685 -38 -707 -8 -4 -32 -24 -53 -43 -21 -19 -70 -62
-108 -94 -39 -33 -78 -68 -87 -79 -10 -10 -18 -17 -18 -14 0 3 -19 -14 -43
-37 -24 -23 -54 -50 -68 -61 -25 -20 -120 -102 -163 -140 -12 -11 -48 -42 -81
-70 -32 -27 -75 -65 -94 -83 -20 -18 -53 -47 -74 -65 -21 -18 -49 -41 -61 -52
-12 -11 -51 -45 -85 -75 -35 -30 -70 -61 -77 -68 -14 -13 4 -33 110 -125 28
-25 152 -136 186 -167 24 -23 145 -130 209 -188 14 -12 42 -37 61 -55 19 -17
73 -66 119 -107 47 -41 99 -88 117 -105 18 -16 57 -51 86 -77 29 -25 77 -68
107 -95 l55 -50 0 -973 c1 -635 -2 -977 -9 -985 -5 -7 -35 -20 -65 -29 -30 -9
-64 -21 -75 -26 -26 -12 -190 -57 -234 -65 -19 -3 -37 -8 -41 -10 -8 -5 -58
-16 -90 -19 -14 -2 -36 -6 -50 -9 -29 -8 -72 -16 -115 -22 -16 -3 -45 -7 -63
-10 -144 -23 -343 -38 -499 -39 -62 -1 -113 -5 -113 -9 0 -5 -4 -6 -8 -3 -5 3
-85 8 -178 11 -94 3 -180 7 -193 10 -12 2 -52 7 -89 10 -75 6 -70 6 -237 34
-66 12 -156 30 -200 41 -44 12 -90 23 -101 25 -12 3 -75 23 -140 45 -66 22
-123 42 -129 44 -51 16 -305 133 -315 145 -3 3 -21 14 -40 23 -72 36 -213 126
-218 139 -2 5 -8 9 -13 9 -5 0 -44 28 -87 62 -42 35 -83 67 -90 73 -34 27
-202 198 -242 245 -25 29 -50 58 -55 64 -62 66 -193 272 -271 425 -53 104
-142 311 -148 346 -1 6 -5 16 -9 23 -5 6 -6 12 -2 12 3 0 0 10 -6 22 -11 20
-41 124 -54 183 -2 11 -9 38 -14 60 -17 68 -24 99 -26 115 -1 8 -6 35 -10 60
-4 25 -9 54 -10 65 -2 11 -6 40 -10 65 -12 78 -14 93 -22 195 -15 189 -7 721
13 816 2 13 7 51 9 84 3 33 9 85 15 115 5 30 11 72 15 93 3 21 14 79 25 129
11 50 17 94 14 99 -3 5 -1 9 4 9 5 0 9 6 9 13 0 17 34 150 41 162 4 6 8 19 9
30 2 11 11 24 21 30 23 14 311 142 322 143 3 0 33 14 67 31 34 17 64 31 66 31
3 0 31 12 63 27 33 15 61 28 64 29 9 2 55 21 135 59 44 20 85 37 90 38 6 1 12
5 15 8 3 4 15 9 28 13 l22 7 0 -1980 0 -1980 58 25 c31 14 81 37 110 50 29 13
55 24 57 24 2 0 48 20 101 45 53 25 102 45 110 45 8 0 14 5 14 10 0 6 6 10 14
10 7 0 67 24 132 54 65 29 193 86 284 125 91 40 188 83 216 97 28 13 54 24 57
24 4 0 37 14 74 31 84 38 133 61 198 89 28 12 77 34 110 49 33 15 106 47 163
71 56 24 102 48 103 54 4 52 3 4020 -2 4027 -3 5 -30 -3 -59 -17 -52 -25 -99
-46 -110 -49 -3 0 -25 -10 -50 -22 -25 -11 -147 -66 -273 -122 -125 -55 -235
-105 -245 -110 -9 -5 -48 -23 -87 -39 -38 -17 -96 -42 -127 -56 -31 -14 -62
-26 -67 -26 -6 0 -11 -4 -11 -10 0 -5 -8 -10 -18 -10 -10 0 -22 -3 -26 -7 -4
-5 -11 -8 -14 -9 -4 0 -32 -12 -62 -26 -30 -14 -93 -42 -140 -63 -47 -21 -112
-50 -145 -65 -33 -15 -63 -28 -67 -29 -4 -1 -47 -20 -95 -42 -49 -23 -116 -54
-151 -70 -35 -16 -65 -29 -67 -29 -4 0 -102 -44 -205 -92 -36 -17 -71 -31 -77
-31 -7 0 -13 -4 -13 -9 0 -4 -5 -8 -10 -8 -6 0 -30 -9 -52 -20 -23 -11 -47
-20 -54 -20 -6 0 -17 -7 -24 -15 -7 -8 -18 -15 -25 -15 -7 0 -48 -16 -92 -36
-43 -20 -94 -43 -113 -51 -19 -9 -56 -26 -82 -39 -27 -13 -48 -21 -48 -17 0 3
-6 0 -13 -6 -18 -14 -30 -2 -16 16 6 7 8 13 4 13 -4 0 -3 6 2 13 6 6 20 39 32
71 58 156 232 491 263 504 5 2 8 8 8 14 0 5 28 49 62 96 62 87 83 114 161 207
45 53 244 253 293 295 58 49 170 137 204 160 19 14 41 30 48 37 8 8 28 21 45
30 18 9 34 19 37 23 6 9 268 160 278 160 23 1 34 18 23 38 -10 19 -13 19 -56
7 -25 -8 -45 -11 -45 -8 0 3 -7 -1 -17 -8 -9 -8 -17 -12 -17 -10 -1 3 -61 -7
-86 -14 -3 -1 -32 -9 -65 -19 -33 -9 -125 -38 -205 -63 -80 -26 -147 -48 -150
-48 -3 -1 -18 -7 -33 -13 -16 -7 -32 -12 -36 -12 -4 0 -22 -7 -40 -16 -17 -9
-37 -17 -44 -18 -7 -2 -23 -8 -37 -13 -14 -6 -50 -21 -80 -33 -243 -96 -604
-289 -843 -449 -54 -36 -106 -70 -115 -76 -9 -5 -19 -12 -22 -15 -3 -3 -36
-27 -73 -55 -252 -186 -522 -435 -696 -645 -12 -14 -30 -35 -42 -47 -25 -27
-93 -116 -139 -182 -19 -28 -38 -50 -42 -51 -5 0 -8 -4 -8 -10 0 -7 -48 -82
-87 -136 -16 -20 -33 -49 -40 -64 -3 -8 -21 -39 -40 -67 -18 -29 -30 -53 -27
-53 3 0 -3 -12 -14 -27 -24 -35 -120 -236 -157 -328 -15 -38 -31 -79 -36 -90
-19 -42 -77 -225 -72 -225 3 0 1 -6 -5 -12 -8 -11 -26 -80 -58 -223 -1 -5 -5
-26 -8 -45 -4 -19 -9 -42 -11 -50 -5 -18 -11 -55 -20 -125 -4 -27 -8 -61 -10
-75 -8 -48 -17 -136 -20 -185 -4 -65 -4 -437 0 -495 7 -98 16 -187 21 -220 3
-19 7 -50 10 -67 9 -72 14 -99 19 -123 3 -14 7 -38 10 -55 3 -16 7 -43 10 -60
3 -16 7 -39 9 -50 2 -11 6 -27 10 -35 5 -15 14 -54 21 -95 2 -11 4 -21 5 -22
3 -3 4 -7 14 -48 4 -16 17 -58 28 -93 11 -34 21 -68 22 -75 2 -7 6 -19 9 -27
4 -8 16 -42 27 -75 12 -33 25 -69 30 -80 4 -11 25 -60 45 -110 43 -103 145
-318 156 -325 4 -3 14 -21 23 -40 8 -19 21 -44 28 -55 7 -11 32 -50 55 -87 24
-37 43 -72 43 -78 0 -5 5 -10 10 -10 6 0 10 -7 10 -15 0 -8 5 -15 10 -15 6 0
10 -7 10 -15 0 -8 4 -15 8 -15 4 0 16 -14 27 -32 17 -29 121 -168 162 -219 44
-52 57 -68 106 -124 55 -62 301 -309 336 -335 11 -9 35 -29 53 -46 18 -16 69
-58 113 -93 44 -34 87 -68 95 -74 21 -17 211 -150 232 -162 9 -5 43 -25 75
-44 32 -19 60 -38 61 -43 2 -4 8 -8 12 -8 5 0 33 -14 62 -31 77 -46 364 -189
379 -189 7 0 20 -6 28 -13 9 -7 61 -30 116 -51 55 -21 114 -43 130 -49 17 -7
32 -12 35 -12 3 0 15 -6 28 -13 12 -7 22 -10 22 -7 0 3 17 -2 38 -10 20 -9 69
-25 107 -36 39 -12 93 -27 120 -35 28 -8 61 -17 75 -20 14 -2 48 -11 75 -19
28 -7 64 -16 80 -19 17 -3 50 -10 75 -15 76 -17 86 -19 126 -26 22 -3 50 -7
64 -10 56 -9 179 -25 235 -31 33 -3 68 -8 77 -9 122 -23 751 -23 933 0 22 2
67 7 100 10 33 4 71 8 85 11 14 2 48 7 75 10 28 4 82 13 120 21 96 19 115 23
150 28 17 2 57 12 90 21 33 9 67 18 75 19 8 1 22 5 30 8 8 2 49 15 90 27 41
12 82 24 90 26 8 3 16 5 17 5 4 -1 81 28 108 40 11 5 42 16 69 25 87 28 384
171 504 242 71 42 182 112 197 124 6 5 54 40 108 80 53 39 97 75 97 79 0 5 5
9 11 9 6 0 16 6 23 13 8 6 46 41 86 77 69 61 201 193 250 250 96 110 116 134
129 153 8 12 27 38 43 57 77 95 207 295 277 430 19 36 38 68 44 71 5 3 8 9 8
13 0 3 10 31 24 61 13 31 24 58 24 62 -1 3 3 9 8 12 10 7 56 116 53 127 -1 4
2 10 7 13 7 4 92 222 99 251 0 3 3 12 7 20 12 31 41 126 42 140 1 8 5 22 8 30
12 32 49 166 51 190 2 14 6 35 10 47 4 12 9 32 11 45 3 13 11 57 20 98 8 41
17 89 20 105 3 17 7 41 9 55 5 24 7 40 22 145 4 28 8 65 8 82 1 18 3 33 6 33
3 0 5 17 6 38 0 20 4 69 7 107 14 146 20 445 10 445 -16 0 -29 -20 -43 -65
-24 -73 -159 -356 -225 -470 -19 -33 -42 -75 -51 -93 -9 -17 -20 -32 -25 -32
-5 0 -9 -4 -9 -9 0 -28 -195 -293 -325 -441 -79 -90 -285 -288 -357 -342 -20
-15 -42 -34 -50 -41 -7 -7 -29 -24 -48 -37 -19 -13 -41 -30 -48 -37 -7 -7 -17
-13 -20 -13 -4 0 -18 -10 -32 -22 -14 -13 -42 -32 -62 -43 -21 -11 -38 -23
-38 -27 0 -5 -4 -8 -9 -8 -5 0 -49 -24 -98 -54 -49 -29 -118 -67 -152 -84 -34
-16 -67 -34 -74 -40 -6 -5 -34 -17 -62 -28 -27 -10 -59 -23 -70 -30 -11 -6
-30 -15 -42 -18 l-22 -7 0 970 0 969 51 44 c28 24 70 61 94 83 23 22 70 65
105 95 34 30 77 69 95 85 17 17 62 57 100 90 37 33 86 77 108 97 162 147 274
247 357 319 25 22 67 60 93 84 26 25 52 45 59 45 11 0 -31 42 -142 140 -34 30
-75 66 -90 80 -15 14 -58 52 -96 86 -180 158 -242 213 -282 251 -13 13 -26 23
-28 23 -2 0 -24 19 -49 43 -25 23 -64 59 -88 79 -24 20 -61 53 -83 73 -22 20
-66 59 -99 88 -32 29 -69 62 -82 74 l-23 23 0 665 c0 366 1 665 3 665 13 0
234 31 246 35 8 2 31 7 50 11 19 3 40 7 45 8 6 1 15 4 20 8 9 5 70 21 87 22 3
1 10 4 14 9 4 4 15 7 24 7 10 0 39 10 66 22 27 12 54 23 60 24 51 9 292 148
394 227 93 72 310 293 310 316 0 4 7 15 16 22 18 14 140 216 152 251 2 4 12
29 24 55 12 27 21 54 21 61 0 6 5 12 10 12 6 0 8 3 5 6 -4 3 0 22 9 42 8 20
17 44 19 54 2 10 6 27 9 38 3 11 7 29 10 40 9 37 15 65 20 95 3 17 8 44 12 60
3 17 7 62 9 100 1 39 3 72 4 75 4 11 1 171 -5 217 -3 26 -8 67 -11 91 -3 23
-16 86 -29 140 -72 285 -236 544 -455 721 -25 20 -47 39 -50 42 -3 3 -47 34
-98 68 -101 68 -285 165 -357 187 -41 13 -134 46 -150 54 -11 5 -31 12 -45 14
-14 3 -45 10 -70 17 -25 6 -56 13 -70 15 -14 2 -46 9 -71 15 -25 5 -50 9 -55
8 -5 -1 -11 0 -14 1 -36 15 -389 18 -510 3z"/>
</g>
</svg>
