<?xml version="1.0" standalone="no"?>
<!DOCTYPE svg PUBLIC "-//W3C//DTD SVG 20010904//EN"
 "http://www.w3.org/TR/2001/REC-SVG-20010904/DTD/svg10.dtd">
<svg version="1.0" xmlns="http://www.w3.org/2000/svg"
 width="260.000000pt" height="260.000000pt" viewBox="0 0 260.000000 260.000000"
 preserveAspectRatio="xMidYMid meet">
<metadata>
Created by potrace 1.11, written by Peter Selinger 2001-2013
</metadata>
<g transform="translate(0.000000,260.000000) scale(0.100000,-0.100000)"
fill="#000000" stroke="none">
<path d="M1085 2047 c-22 -8 -59 -26 -82 -41 -146 -97 -165 -322 -37 -450 l44
-44 -46 -27 c-63 -37 -153 -130 -187 -192 -15 -29 -36 -85 -46 -125 l-19 -73
-86 -3 -86 -3 0 -29 0 -30 88 0 88 0 11 -64 c23 -138 125 -282 240 -343 110
-59 140 -63 434 -63 258 0 271 1 347 25 248 78 406 323 363 563 -25 140 -110
271 -222 343 l-49 31 36 40 c55 61 78 121 78 203 1 115 -56 210 -158 263 -43
22 -64 27 -131 27 -94 -1 -152 -24 -211 -85 l-37 -38 -29 34 c-64 73 -209 112
-303 81z m175 -109 c26 -14 57 -41 75 -66 29 -42 30 -48 34 -174 l3 -130 -135
4 c-134 3 -136 3 -174 34 -61 49 -83 89 -83 150 0 66 13 100 53 143 62 65 147
79 227 39z m485 3 c148 -67 151 -275 5 -348 -38 -20 -60 -23 -162 -23 l-118 0
0 119 c0 66 5 132 11 148 14 37 66 92 104 109 42 19 113 17 160 -5z m-375
-876 l0 -405 -85 0 -85 0 0 405 0 405 85 0 85 0 0 -405z m411 368 c116 -54
181 -129 220 -254 22 -69 24 -125 8 -198 -15 -71 -26 -77 -110 -63 -38 7 -92
23 -118 37 l-49 24 -17 -25 c-16 -24 -15 -26 2 -40 29 -22 124 -55 175 -61 27
-3 48 -10 48 -15 0 -22 -98 -101 -168 -135 -72 -36 -81 -38 -189 -41 l-113 -4
0 407 0 407 123 -4 c111 -3 128 -7 188 -35z m-681 -378 l0 -385 -25 10 c-115
44 -200 136 -240 259 -13 39 -16 75 -13 140 5 105 37 177 111 252 43 43 138
109 160 109 4 0 7 -173 7 -385z"/>
<path d="M1662 1227 c-47 -50 -15 -127 53 -127 70 0 103 87 49 129 -35 28 -75
27 -102 -2z"/>
</g>
</svg>
