<svg width="256" height="256" viewBox="0 0 16 16" fill="none" xmlns="http://www.w3.org/2000/svg">
  <rect width="256" height="256" fill="#E5E5E5"/>
  <mask id="path-1-inside-1" fill="white">
    <path fill-rule="evenodd" clip-rule="evenodd" d="M81.7778 174.222C56.2499 174.222 35.5555 153.528 35.5555 128C35.5555 102.472 56.2499 81.7778 81.7778 81.7778C81.7778 56.2499 102.472 35.5555 128 35.5555C153.528 35.5555 174.222 56.2499 174.222 81.7778C199.75 81.7778 220.444 102.472 220.444 128C220.444 153.528 199.75 174.222 174.222 174.222C174.222 199.75 153.528 220.444 128 220.444C102.472 220.444 81.7778 199.75 81.7778 174.222Z"/>
  </mask>
  <path d="M81.7778 174.222H94.3838V161.616L81.7778 161.616L81.7778 174.222ZM81.7778 81.7778L81.7778 94.3838L94.3838 94.3838V81.7778H81.7778ZM174.222 81.7778H161.616V94.3838L174.222 94.3838L174.222 81.7778ZM174.222 174.222L174.222 161.616L161.616 161.616V174.222H174.222ZM81.7778 161.616C63.2121 161.616 48.1616 146.566 48.1616 128H22.9495C22.9495 160.49 49.2878 186.828 81.7778 186.828L81.7778 161.616ZM48.1616 128C48.1616 109.434 63.2121 94.3838 81.7778 94.3838L81.7778 69.1717C49.2878 69.1717 22.9495 95.51 22.9495 128H48.1616ZM94.3838 81.7778C94.3838 63.2121 109.434 48.1616 128 48.1616V22.9495C95.51 22.9495 69.1717 49.2878 69.1717 81.7778H94.3838ZM128 48.1616C146.566 48.1616 161.616 63.2121 161.616 81.7778H186.828C186.828 49.2878 160.49 22.9495 128 22.9495V48.1616ZM174.222 94.3838C192.788 94.3838 207.838 109.434 207.838 128H233.05C233.05 95.51 206.712 69.1717 174.222 69.1717L174.222 94.3838ZM207.838 128C207.838 146.566 192.788 161.616 174.222 161.616L174.222 186.828C206.712 186.828 233.05 160.49 233.05 128H207.838ZM161.616 174.222C161.616 192.788 146.566 207.838 128 207.838V233.05C160.49 233.05 186.828 206.712 186.828 174.222H161.616ZM128 207.838C109.434 207.838 94.3838 192.788 94.3838 174.222H69.1717C69.1717 206.712 95.51 233.05 128 233.05V207.838Z" fill="black" mask="url(#path-1-inside-1)"/>
  <path fill-rule="evenodd" clip-rule="evenodd" d="M161.616 94.3838H94.3838V161.616H161.616V94.3838ZM118.863 118.863L102.64 127.737L118.863 136.61L127.737 152.833L136.61 136.61L152.834 127.737L136.61 118.863L127.737 102.64L118.863 118.863Z" fill="black"/>
</svg>
